<svg xmlns="http://www.w3.org/2000/svg" viewBox="0 0 32 32"><title>15-Book</title><g id="_15-Book" data-name="15-Book"><path d="M29,0H7A5,5,0,0,0,2,5V20H4V5A3,3,0,0,1,7,2H28V20h2V1A1,1,0,0,0,29,0Z"/><path d="M25,6a1,1,0,0,0-1-1H8A1,1,0,0,0,7,6v4a1,1,0,0,0,1,1H24a1,1,0,0,0,1-1ZM23,9H9V7H23Z"/><rect x="7" y="14" width="2" height="2"/><rect x="11" y="14" width="2" height="2"/><rect x="17" y="14" width="8" height="2"/><path d="M18,22H14a1,1,0,0,0-1,1v8a1,1,0,0,0,1,1h4a2,2,0,0,0,2-2V24A2,2,0,0,0,18,22Zm0,8H15V24h3Z"/><path d="M22,23v9h2V28h4V26H24V24h4V22H23A1,1,0,0,0,22,23Z"/><path d="M9,22H5a1,1,0,0,0-1,1v9H6V29H9a2,2,0,0,0,2-2V24A2,2,0,0,0,9,22Zm0,5H6V24H9Z"/></g></svg>